<mxfile host="app.diagrams.net" modified="2024-06-06T05:30:50.383Z" agent="Mozilla/5.0 (Windows NT 10.0; Win64; x64) AppleWebKit/537.36 (KHTML, like Gecko) Chrome/125.0.0.0 Safari/537.36 Edg/125.0.0.0" etag="UzYqrOvnKQ4VPhmgyKIp" version="24.4.14" type="github">
  <diagram name="第 1 页" id="H_hP5pwuIQInV6Qq0q9w">
    <mxGraphModel dx="1002" dy="1834" grid="1" gridSize="10" guides="1" tooltips="1" connect="1" arrows="1" fold="1" page="1" pageScale="1" pageWidth="827" pageHeight="1169" math="0" shadow="0">
      <root>
        <mxCell id="0" />
        <mxCell id="1" parent="0" />
        <mxCell id="9UeslWUUkB1lrM4f2dq8-1" value="wuqiulin start" style="ellipse;whiteSpace=wrap;html=1;" vertex="1" parent="1">
          <mxGeometry x="200" y="-600" width="80" height="80" as="geometry" />
        </mxCell>
      </root>
    </mxGraphModel>
  </diagram>
</mxfile>
